<svg id="visual" viewBox="0 0 900 600" width="900" height="600" xmlns="http://www.w3.org/2000/svg" xmlns:xlink="http://www.w3.org/1999/xlink" version="1.1"><rect x="0" y="0" width="900" height="600" fill="#001220"></rect><defs><linearGradient id="grad1_0" x1="33.3%" y1="0%" x2="100%" y2="100%"><stop offset="20%" stop-color="#001220" stop-opacity="1"></stop><stop offset="80%" stop-color="#001220" stop-opacity="1"></stop></linearGradient></defs><defs><linearGradient id="grad2_0" x1="0%" y1="0%" x2="66.7%" y2="100%"><stop offset="20%" stop-color="#001220" stop-opacity="1"></stop><stop offset="80%" stop-color="#001220" stop-opacity="1"></stop></linearGradient></defs><g transform="translate(900, 0)"><path d="M0 324.5C-45.7 323.8 -91.4 323 -124.2 299.8C-156.9 276.6 -176.7 230.9 -195.9 195.9C-215.1 160.8 -233.6 136.5 -255 105.6C-276.3 74.8 -300.4 37.4 -324.5 0L0 0Z" fill="#e18c0b"></path></g><g transform="translate(0, 600)"><path d="M0 -324.5C43.2 -321.4 86.4 -318.2 124.2 -299.8C162 -281.4 194.3 -247.7 212.1 -212.1C229.9 -176.5 233.1 -139 249.4 -103.3C265.7 -67.6 295.1 -33.8 324.5 0L0 0Z" fill="#e18c0b"></path></g></svg>