<?xml version="1.0" standalone="no"?>
<!DOCTYPE svg PUBLIC "-//W3C//DTD SVG 20010904//EN"
 "http://www.w3.org/TR/2001/REC-SVG-20010904/DTD/svg10.dtd">
<svg version="1.0" xmlns="http://www.w3.org/2000/svg"
 width="128.000000pt" height="128.000000pt" viewBox="0 0 128.000000 128.000000"
 preserveAspectRatio="xMidYMid meet">

<g transform="translate(0.000000,128.000000) scale(0.100000,-0.100000)"
fill="#000000" stroke="none">
<path d="M443 1050 c-31 -35 -62 -38 -88 -10 -21 23 -49 25 -85 7 -20 -10 -26
-22 -30 -57 l-5 -45 -53 -3 c-77 -4 -83 -19 -75 -162 5 -100 9 -117 29 -137
19 -19 27 -21 56 -13 52 15 58 13 58 -24 0 -41 17 -56 70 -63 41 -6 47 -12 30
-29 -19 -19 0 -143 25 -172 23 -26 23 -26 86 -13 58 12 64 11 76 -5 7 -10 13
-34 13 -55 0 -45 14 -57 72 -65 44 -6 46 -5 77 34 46 56 93 64 138 20 27 -27
37 -30 68 -25 21 3 48 14 62 23 23 14 25 21 20 64 -4 29 -1 52 6 59 6 6 42 11
79 11 66 0 69 1 89 33 17 27 19 42 14 97 -3 35 -11 71 -18 79 -9 11 -9 15 1
18 20 7 15 122 -7 163 -20 37 -23 38 -136 28 l-40 -3 -9 57 c-8 55 -10 58 -45
68 -57 16 -69 12 -109 -29 -22 -23 -51 -42 -69 -46 -33 -7 -33 -7 -33 35 0 45
-21 94 -44 103 -8 3 -31 1 -50 -4 -46 -13 -56 -6 -56 37 0 28 -5 36 -26 44
-42 16 -62 12 -91 -20z m101 -37 c11 -50 20 -55 75 -41 37 9 44 8 56 -8 10
-12 14 -38 13 -70 -1 -27 1 -55 4 -60 4 -5 27 -8 52 -6 40 4 51 10 78 43 24
30 38 39 62 39 48 0 57 -10 46 -50 -15 -52 -13 -56 28 -74 33 -15 42 -15 92
-1 54 14 55 14 72 -8 10 -12 18 -24 18 -27 0 -3 -23 -18 -51 -33 -47 -27 -50
-31 -47 -64 3 -32 8 -37 48 -53 49 -19 56 -30 40 -59 -9 -18 -21 -21 -78 -21
-57 -1 -71 -4 -95 -25 -27 -24 -28 -28 -17 -61 16 -47 8 -62 -35 -70 -32 -6
-40 -3 -69 25 -30 29 -37 31 -77 25 -35 -5 -52 -15 -79 -46 -33 -37 -38 -39
-74 -33 -37 7 -38 8 -31 42 3 19 8 40 11 46 2 7 -11 21 -31 31 -31 17 -40 18
-96 6 -57 -12 -63 -12 -75 5 -20 27 -18 34 17 53 56 30 67 45 59 72 l-8 25 -1
-27 c-1 -34 -27 -50 -58 -35 -13 5 -23 15 -23 20 0 5 -6 4 -14 -2 -8 -7 -30
-11 -48 -9 -30 3 -33 6 -36 40 -4 51 -20 62 -73 48 -53 -14 -64 -4 -73 66 -5
44 -4 53 11 59 17 6 17 7 1 16 -13 7 -18 23 -18 58 0 66 16 85 68 79 52 -7 77
15 67 61 -5 23 -2 32 14 40 29 16 55 13 84 -9 35 -28 58 -25 92 10 23 24 37
30 60 28 26 -3 31 -8 39 -45z m574 -386 c-22 -15 -31 -16 -48 -7 -35 19 -23
60 25 87 l40 22 5 -42 c4 -37 2 -44 -22 -60z m22 -178 c-12 -28 -15 -29 -81
-29 -37 0 -71 -4 -74 -10 -11 -18 -23 -11 -34 22 -10 29 -9 34 16 55 22 18 41
22 89 23 45 0 65 5 75 17 13 15 14 13 17 -17 2 -18 -2 -45 -8 -61z m-589 -7
c23 -15 25 -21 17 -50 -7 -26 -13 -32 -28 -27 -10 3 -44 -1 -74 -8 -50 -13
-56 -13 -69 2 -8 9 -17 32 -21 52 -6 34 -5 36 17 32 13 -3 39 0 58 5 51 15 71
14 100 -6z m290 -67 c39 -35 40 -35 75 -20 20 8 38 15 40 15 2 0 4 -20 4 -44
0 -40 -3 -45 -31 -55 -43 -15 -44 -15 -81 18 -30 26 -39 28 -80 24 -38 -5 -54
-13 -83 -44 -31 -34 -39 -38 -68 -32 -40 7 -35 2 -43 51 l-7 42 45 -6 c44 -6
46 -5 74 34 28 39 34 42 103 50 7 1 31 -14 52 -33z"/>
<path d="M345 866 c-42 -19 -79 -61 -71 -81 8 -22 67 -45 116 -45 51 0 102 21
136 55 l27 27 -26 26 c-22 22 -37 27 -89 29 -39 2 -74 -2 -93 -11z m162 -22
c29 -18 21 -36 -28 -63 -46 -26 -111 -31 -156 -12 -38 15 -41 30 -14 55 49 45
146 54 198 20z"/>
<path d="M720 781 c-16 -5 -1 -8 45 -8 116 -1 195 -49 195 -121 l0 -35 -25 23
c-76 72 -285 48 -360 -41 -13 -17 -29 -27 -35 -24 -21 13 -9 -16 20 -49 88
-99 293 -85 384 27 25 32 31 48 31 89 0 45 -4 53 -41 88 -54 50 -143 71 -214
51z m169 -146 c15 -7 33 -21 41 -30 11 -13 9 -20 -15 -45 -70 -73 -206 -98
-290 -54 -46 24 -55 47 -28 76 21 23 85 58 128 69 40 11 130 2 164 -16z"/>
</g>
</svg>
