<?xml version="1.0" encoding="UTF-8" standalone="no"?>
<svg
   xmlns:dc="http://purl.org/dc/elements/1.1/"
   xmlns:cc="http://creativecommons.org/ns#"
   xmlns:rdf="http://www.w3.org/1999/02/22-rdf-syntax-ns#"
   xmlns:svg="http://www.w3.org/2000/svg"
   xmlns="http://www.w3.org/2000/svg"
   xmlns:sodipodi="http://sodipodi.sourceforge.net/DTD/sodipodi-0.dtd"
   xmlns:inkscape="http://www.inkscape.org/namespaces/inkscape"
   inkscape:export-ydpi="576"
   inkscape:export-xdpi="576"
   inkscape:export-filename="E:\Project\1 - Carlos Project\012 - School And Education\Send\4 - FilledLine\10 - Student.png"
   width="64pt"
   height="64pt"
   viewBox="0 0 22.577778 22.577778"
   version="1.1"
   id="svg831"
   inkscape:version="1.0 (4035a4fb49, 2020-05-01)"
   sodipodi:docname="10 - Student.svg">
  <defs
     id="defs825">
    <pattern
       id="EMFhbasepattern"
       patternUnits="userSpaceOnUse"
       width="6"
       height="6"
       x="0"
       y="0" />
    <pattern
       id="EMFhbasepattern-9"
       patternUnits="userSpaceOnUse"
       width="6"
       height="6"
       x="0"
       y="0" />
    <pattern
       id="EMFhbasepattern-0"
       patternUnits="userSpaceOnUse"
       width="6"
       height="6"
       x="0"
       y="0" />
    <pattern
       id="EMFhbasepattern-7"
       patternUnits="userSpaceOnUse"
       width="6"
       height="6"
       x="0"
       y="0" />
    <pattern
       id="EMFhbasepattern-2"
       patternUnits="userSpaceOnUse"
       width="6"
       height="6"
       x="0"
       y="0" />
    <pattern
       id="EMFhbasepattern-98"
       patternUnits="userSpaceOnUse"
       width="6"
       height="6"
       x="0"
       y="0" />
    <pattern
       id="EMFhbasepattern-6"
       patternUnits="userSpaceOnUse"
       width="6"
       height="6"
       x="0"
       y="0" />
    <pattern
       id="EMFhbasepattern-01"
       patternUnits="userSpaceOnUse"
       width="6"
       height="6"
       x="0"
       y="0" />
    <pattern
       id="EMFhbasepattern-07"
       patternUnits="userSpaceOnUse"
       width="6"
       height="6"
       x="0"
       y="0" />
    <pattern
       id="EMFhbasepattern-8"
       patternUnits="userSpaceOnUse"
       width="6"
       height="6"
       x="0"
       y="0" />
    <pattern
       id="EMFhbasepattern-4"
       patternUnits="userSpaceOnUse"
       width="6"
       height="6"
       x="0"
       y="0" />
    <pattern
       id="EMFhbasepattern-40"
       patternUnits="userSpaceOnUse"
       width="6"
       height="6"
       x="0"
       y="0" />
    <pattern
       id="EMFhbasepattern-08"
       patternUnits="userSpaceOnUse"
       width="6"
       height="6"
       x="0"
       y="0" />
    <pattern
       id="EMFhbasepattern-04"
       patternUnits="userSpaceOnUse"
       width="6"
       height="6"
       x="0"
       y="0" />
    <pattern
       id="EMFhbasepattern-014"
       patternUnits="userSpaceOnUse"
       width="6"
       height="6"
       x="0"
       y="0" />
    <pattern
       id="EMFhbasepattern-27"
       patternUnits="userSpaceOnUse"
       width="6"
       height="6"
       x="0"
       y="0" />
    <pattern
       id="EMFhbasepattern-09"
       patternUnits="userSpaceOnUse"
       width="6"
       height="6"
       x="0"
       y="0" />
    <pattern
       id="EMFhbasepattern-5"
       patternUnits="userSpaceOnUse"
       width="6"
       height="6"
       x="0"
       y="0" />
    <pattern
       id="EMFhbasepattern-018"
       patternUnits="userSpaceOnUse"
       width="6"
       height="6"
       x="0"
       y="0" />
  </defs>
  <sodipodi:namedview
     id="base"
     pagecolor="#ffffff"
     bordercolor="#666666"
     borderopacity="1.0"
     inkscape:pageopacity="0.0"
     inkscape:pageshadow="2"
     inkscape:zoom="5.671875"
     inkscape:cx="12.606061"
     inkscape:cy="42.666667"
     inkscape:document-units="pt"
     inkscape:current-layer="layer1"
     showgrid="false"
     units="pt"
     inkscape:window-width="1366"
     inkscape:window-height="716"
     inkscape:window-x="-8"
     inkscape:window-y="-8"
     inkscape:window-maximized="1"
     inkscape:pagecheckerboard="true"
     inkscape:showpageshadow="false"
     inkscape:object-paths="true"
     inkscape:snap-intersection-paths="true"
     inkscape:snap-smooth-nodes="true"
     inkscape:snap-midpoints="true"
     showguides="false"
     inkscape:snap-bbox="true"
     inkscape:bbox-nodes="true"
     inkscape:snap-nodes="false"
     inkscape:snap-global="true"
     inkscape:document-rotation="0">
    <inkscape:grid
       type="xygrid"
       id="grid1378" />
    <sodipodi:guide
       position="0.97013831,21.607643"
       orientation="78.000048,0"
       id="guide1380"
       inkscape:locked="false" />
    <sodipodi:guide
       position="0.97013831,0.97013129"
       orientation="0,78.000005"
       id="guide1382"
       inkscape:locked="false" />
    <sodipodi:guide
       position="21.607639,0.97013129"
       orientation="-78.000048,0"
       id="guide1384"
       inkscape:locked="false" />
    <sodipodi:guide
       position="21.607639,21.607643"
       orientation="0,-78.000005"
       id="guide1386"
       inkscape:locked="false" />
  </sodipodi:namedview>
  <metadata
     id="metadata828">
    <rdf:RDF>
      <cc:Work
         rdf:about="">
        <dc:format>image/svg+xml</dc:format>
        <dc:type
           rdf:resource="http://purl.org/dc/dcmitype/StillImage" />
        <dc:title />
      </cc:Work>
    </rdf:RDF>
  </metadata>
  <g
     inkscape:label="Icon"
     inkscape:groupmode="layer"
     id="layer1"
     transform="translate(0,-274.42223)">
    <g
       id="g344"
       style="display:inline"
       transform="matrix(1.2578834,0,0,1.2578834,-76.09977,-77.230106)">
      <g
         style="display:inline"
         id="g1134">
        <path
           style="color:#000000;font-style:normal;font-variant:normal;font-weight:normal;font-stretch:normal;font-size:medium;line-height:normal;font-family:sans-serif;font-variant-ligatures:normal;font-variant-position:normal;font-variant-caps:normal;font-variant-numeric:normal;font-variant-alternates:normal;font-variant-east-asian:normal;font-feature-settings:normal;font-variation-settings:normal;text-indent:0;text-align:start;text-decoration:none;text-decoration-line:none;text-decoration-style:solid;text-decoration-color:#000000;letter-spacing:normal;word-spacing:normal;text-transform:none;writing-mode:lr-tb;direction:ltr;text-orientation:mixed;dominant-baseline:auto;baseline-shift:baseline;text-anchor:start;white-space:normal;shape-padding:0;shape-margin:0;inline-size:0;clip-rule:nonzero;display:inline;overflow:visible;visibility:visible;isolation:auto;mix-blend-mode:normal;color-interpolation:sRGB;color-interpolation-filters:linearRGB;solid-color:#000000;solid-opacity:1;vector-effect:none;fill:#ffccbc;fill-opacity:1;fill-rule:nonzero;stroke:none;stroke-width:0.529167;stroke-linecap:round;stroke-linejoin:round;stroke-miterlimit:4;stroke-dasharray:none;stroke-dashoffset:0;stroke-opacity:1;color-rendering:auto;image-rendering:auto;shape-rendering:auto;text-rendering:auto;enable-background:accumulate;stop-color:#000000"
           d="m 72.761634,293.90234 c 0.05411,0.003 0.105923,0.023 0.148437,0.0566 l 1.529297,1.2168 c 0.05625,0.0453 0.09153,0.11164 0.09766,0.1836 l 0.02755,0.81798 v 0.26621 c 0,0.15595 -0.106938,0.29125 -0.263672,0.29102 l -1.556854,0.002 c -0.146172,-5.2e-4 -0.264235,-0.11946 -0.263671,-0.26563 v -2.30468 c 2.34e-4,-0.15253 0.129027,-0.27327 0.28125,-0.26368 z"
           id="path1044"
           sodipodi:nodetypes="cccccccccccc" />
        <path
           sodipodi:nodetypes="cccccccccccccccccc"
           id="path663"
           d="m 74.390625,290.48242 c -0.0016,-0.0568 -0.02147,-0.1116 -0.05664,-0.15625 l -0.560546,-0.71484 c -0.0264,-0.0337 -0.06058,-0.0605 -0.09961,-0.0781 l -1.214844,-0.54687 c -0.03974,-0.0182 -0.08335,-0.0262 -0.126953,-0.0234 l -10e-7,-7e-5 c -0.02679,0.002 -0.05313,0.008 -0.07813,0.0176 l -0.972656,0.375 c -0.102008,0.0391 -0.16951,0.13685 -0.169922,0.24609 v 3.1211 3.74804 c -5.64e-4,0.14617 0.117499,0.26511 0.263672,0.26563 h 1.359375 c 0.146946,5.7e-4 0.266209,-0.1187 0.26563,-0.26565 v -0.82226 h 1.554378 z"
           style="color:#000000;font-style:normal;font-variant:normal;font-weight:normal;font-stretch:normal;font-size:medium;line-height:normal;font-family:sans-serif;font-variant-ligatures:normal;font-variant-position:normal;font-variant-caps:normal;font-variant-numeric:normal;font-variant-alternates:normal;font-variant-east-asian:normal;font-feature-settings:normal;font-variation-settings:normal;text-indent:0;text-align:start;text-decoration:none;text-decoration-line:none;text-decoration-style:solid;text-decoration-color:#000000;letter-spacing:normal;word-spacing:normal;text-transform:none;writing-mode:lr-tb;direction:ltr;text-orientation:mixed;dominant-baseline:auto;baseline-shift:baseline;text-anchor:start;white-space:normal;shape-padding:0;shape-margin:0;inline-size:0;clip-rule:nonzero;display:inline;overflow:visible;visibility:visible;isolation:auto;mix-blend-mode:normal;color-interpolation:sRGB;color-interpolation-filters:linearRGB;solid-color:#000000;solid-opacity:1;vector-effect:none;fill:#3a4d5c;fill-opacity:1;fill-rule:nonzero;stroke:none;stroke-width:0.529167;stroke-linecap:round;stroke-linejoin:round;stroke-miterlimit:4;stroke-dasharray:none;stroke-dashoffset:0;stroke-opacity:1;color-rendering:auto;image-rendering:auto;shape-rendering:auto;text-rendering:auto;enable-background:accumulate;stop-color:#000000" />
        <path
           sodipodi:nodetypes="cccccccccccc"
           id="path679"
           d="m 66.193359,293.90234 c -0.05411,0.003 -0.105923,0.023 -0.148437,0.0566 l -1.529297,1.2168 c -0.05625,0.0453 -0.09153,0.11164 -0.09766,0.1836 l -0.02755,0.81798 v 0.26621 c 0,0.15595 0.106938,0.29125 0.263672,0.29102 l 1.556854,0.002 c 0.146172,-5.2e-4 0.264235,-0.11946 0.263671,-0.26563 v -2.30468 c -2.34e-4,-0.15253 -0.129027,-0.27327 -0.28125,-0.26368 z"
           style="color:#000000;font-style:normal;font-variant:normal;font-weight:normal;font-stretch:normal;font-size:medium;line-height:normal;font-family:sans-serif;font-variant-ligatures:normal;font-variant-position:normal;font-variant-caps:normal;font-variant-numeric:normal;font-variant-alternates:normal;font-variant-east-asian:normal;font-feature-settings:normal;font-variation-settings:normal;text-indent:0;text-align:start;text-decoration:none;text-decoration-line:none;text-decoration-style:solid;text-decoration-color:#000000;letter-spacing:normal;word-spacing:normal;text-transform:none;writing-mode:lr-tb;direction:ltr;text-orientation:mixed;dominant-baseline:auto;baseline-shift:baseline;text-anchor:start;white-space:normal;shape-padding:0;shape-margin:0;inline-size:0;clip-rule:nonzero;display:inline;overflow:visible;visibility:visible;isolation:auto;mix-blend-mode:normal;color-interpolation:sRGB;color-interpolation-filters:linearRGB;solid-color:#000000;solid-opacity:1;vector-effect:none;fill:#ffccbc;fill-opacity:1;fill-rule:nonzero;stroke:none;stroke-width:0.529167;stroke-linecap:round;stroke-linejoin:round;stroke-miterlimit:4;stroke-dasharray:none;stroke-dashoffset:0;stroke-opacity:1;color-rendering:auto;image-rendering:auto;shape-rendering:auto;text-rendering:auto;enable-background:accumulate;stop-color:#000000" />
        <path
           sodipodi:nodetypes="ccccccccccccccccc"
           id="path689"
           d="m 67.568358,296.73626 c 0.146936,5.6e-4 0.266193,-0.11869 0.265625,-0.26563 v -3.74804 -3.1211 c -4.12e-4,-0.10924 -0.06791,-0.207 -0.169922,-0.24609 l -0.974609,-0.375 c -0.02685,-0.0104 -0.05522,-0.0163 -0.08398,-0.0176 l -3e-6,9e-5 c -0.04099,-0.002 -0.08178,0.006 -0.119141,0.0234 l -1.214844,0.54687 c -0.03903,0.0176 -0.07321,0.0444 -0.09961,0.0781 l -0.560547,0.71484 c -0.03517,0.0446 -0.05503,0.0994 -0.05664,0.15625 l -0.164274,5.16602 h 1.554898 v 1.08792 z"
           style="color:#000000;font-style:normal;font-variant:normal;font-weight:normal;font-stretch:normal;font-size:medium;line-height:normal;font-family:sans-serif;font-variant-ligatures:normal;font-variant-position:normal;font-variant-caps:normal;font-variant-numeric:normal;font-variant-alternates:normal;font-variant-east-asian:normal;font-feature-settings:normal;font-variation-settings:normal;text-indent:0;text-align:start;text-decoration:none;text-decoration-line:none;text-decoration-style:solid;text-decoration-color:#000000;letter-spacing:normal;word-spacing:normal;text-transform:none;writing-mode:lr-tb;direction:ltr;text-orientation:mixed;dominant-baseline:auto;baseline-shift:baseline;text-anchor:start;white-space:normal;shape-padding:0;shape-margin:0;inline-size:0;clip-rule:nonzero;display:inline;overflow:visible;visibility:visible;isolation:auto;mix-blend-mode:normal;color-interpolation:sRGB;color-interpolation-filters:linearRGB;solid-color:#000000;solid-opacity:1;vector-effect:none;fill:#3a4d5c;fill-opacity:1;fill-rule:nonzero;stroke:none;stroke-width:0.529167;stroke-linecap:round;stroke-linejoin:round;stroke-miterlimit:4;stroke-dasharray:none;stroke-dashoffset:0;stroke-opacity:1;color-rendering:auto;image-rendering:auto;shape-rendering:auto;text-rendering:auto;enable-background:accumulate;stop-color:#000000" />
        <path
           sodipodi:nodetypes="ccccccc"
           id="path700"
           d="m 71.640625,296.73626 v -6.67376 c -5.18e-4,-0.14617 -0.119455,-0.26423 -0.265625,-0.26367 h -3.806641 c -0.145407,5.2e-4 -0.263155,0.11826 -0.263671,0.26367 v 6.67376 z"
           style="color:#000000;font-style:normal;font-variant:normal;font-weight:normal;font-stretch:normal;font-size:medium;line-height:normal;font-family:sans-serif;font-variant-ligatures:normal;font-variant-position:normal;font-variant-caps:normal;font-variant-numeric:normal;font-variant-alternates:normal;font-variant-east-asian:normal;font-feature-settings:normal;font-variation-settings:normal;text-indent:0;text-align:start;text-decoration:none;text-decoration-line:none;text-decoration-style:solid;text-decoration-color:#000000;letter-spacing:normal;word-spacing:normal;text-transform:none;writing-mode:lr-tb;direction:ltr;text-orientation:mixed;dominant-baseline:auto;baseline-shift:baseline;text-anchor:start;white-space:normal;shape-padding:0;shape-margin:0;inline-size:0;clip-rule:nonzero;display:inline;overflow:visible;visibility:visible;isolation:auto;mix-blend-mode:normal;color-interpolation:sRGB;color-interpolation-filters:linearRGB;solid-color:#000000;solid-opacity:1;vector-effect:none;fill:#d0e2ee;fill-opacity:1;fill-rule:nonzero;stroke:none;stroke-width:0.529167;stroke-linecap:round;stroke-linejoin:round;stroke-miterlimit:4;stroke-dasharray:none;stroke-dashoffset:0;stroke-opacity:1;paint-order:markers fill stroke;color-rendering:auto;image-rendering:auto;shape-rendering:auto;text-rendering:auto;enable-background:accumulate;stop-color:#000000" />
        <path
           id="path706"
           d="m 68.113281,286.70508 a 0.26460996,0.26460996 0 0 0 -0.261719,0.22461 l -0.271484,1.79883 a 0.26460996,0.26460996 0 0 0 0.0918,0.24218 l 1.087891,0.90625 a 0.26460996,0.26460996 0 0 0 0.167968,0.0625 h 1.087891 a 0.26460996,0.26460996 0 0 0 0.169922,-0.0625 l 1.087891,-0.90625 a 0.26460996,0.26460996 0 0 0 0.0918,-0.24218 l -0.271484,-1.79883 a 0.26460996,0.26460996 0 0 0 -0.261719,-0.22461 z"
           style="color:#000000;font-style:normal;font-variant:normal;font-weight:normal;font-stretch:normal;font-size:medium;line-height:normal;font-family:sans-serif;font-variant-ligatures:normal;font-variant-position:normal;font-variant-caps:normal;font-variant-numeric:normal;font-variant-alternates:normal;font-variant-east-asian:normal;font-feature-settings:normal;font-variation-settings:normal;text-indent:0;text-align:start;text-decoration:none;text-decoration-line:none;text-decoration-style:solid;text-decoration-color:#000000;letter-spacing:normal;word-spacing:normal;text-transform:none;writing-mode:lr-tb;direction:ltr;text-orientation:mixed;dominant-baseline:auto;baseline-shift:baseline;text-anchor:start;white-space:normal;shape-padding:0;shape-margin:0;inline-size:0;clip-rule:nonzero;display:inline;overflow:visible;visibility:visible;isolation:auto;mix-blend-mode:normal;color-interpolation:sRGB;color-interpolation-filters:linearRGB;solid-color:#000000;solid-opacity:1;vector-effect:none;fill:#ffa185;fill-opacity:1;fill-rule:nonzero;stroke:none;stroke-width:0.529167;stroke-linecap:round;stroke-linejoin:round;stroke-miterlimit:4;stroke-dasharray:none;stroke-dashoffset:0;stroke-opacity:1;color-rendering:auto;image-rendering:auto;shape-rendering:auto;text-rendering:auto;enable-background:accumulate;stop-color:#000000" />
        <path
           id="path717"
           d="m 67.025391,284.02734 a 0.26460996,0.26460996 0 0 0 -0.263672,0.26368 v 1.57617 a 0.26460996,0.26460996 0 0 0 0.002,0.0449 c 0,0 0.08254,0.48029 0.466797,0.94141 0.38426,0.46111 1.08858,0.91015 2.242187,0.91015 1.153608,0 1.857928,-0.44904 2.242188,-0.91015 0.38426,-0.46112 0.464844,-0.94141 0.464844,-0.94141 a 0.26460996,0.26460996 0 0 0 0.0039,-0.0449 v -1.57617 a 0.26460996,0.26460996 0 0 0 -0.263672,-0.26368 z"
           style="color:#000000;font-style:normal;font-variant:normal;font-weight:normal;font-stretch:normal;font-size:medium;line-height:normal;font-family:sans-serif;font-variant-ligatures:normal;font-variant-position:normal;font-variant-caps:normal;font-variant-numeric:normal;font-variant-alternates:normal;font-variant-east-asian:normal;font-feature-settings:normal;font-variation-settings:normal;text-indent:0;text-align:start;text-decoration:none;text-decoration-line:none;text-decoration-style:solid;text-decoration-color:#000000;letter-spacing:normal;word-spacing:normal;text-transform:none;writing-mode:lr-tb;direction:ltr;text-orientation:mixed;dominant-baseline:auto;baseline-shift:baseline;text-anchor:start;white-space:normal;shape-padding:0;shape-margin:0;inline-size:0;clip-rule:nonzero;display:inline;overflow:visible;visibility:visible;isolation:auto;mix-blend-mode:normal;color-interpolation:sRGB;color-interpolation-filters:linearRGB;solid-color:#000000;solid-opacity:1;vector-effect:none;fill:#ffccbc;fill-opacity:1;fill-rule:nonzero;stroke:none;stroke-width:0.529167;stroke-linecap:round;stroke-linejoin:round;stroke-miterlimit:4;stroke-dasharray:none;stroke-dashoffset:0;stroke-opacity:1;color-rendering:auto;image-rendering:auto;shape-rendering:auto;text-rendering:auto;enable-background:accumulate;stop-color:#000000" />
        <path
           d="m 71.654542,284.02714 v 1.31103 a 0.26460996,0.26460996 0 0 1 -0.0041,0.045 c 0,0 -0.08031,0.47991 -0.464572,0.94103 -0.384259,0.46111 -1.088633,0.91054 -2.24224,0.91054 -0.819851,0 -1.409203,-0.22829 -1.821596,-0.52503 0.03371,0.0478 0.06853,0.0957 0.108522,0.14366 0.38426,0.46111 1.088633,0.91053 2.24224,0.91053 1.153608,0 1.857981,-0.44942 2.242241,-0.91053 0.38426,-0.46112 0.464571,-0.94103 0.464571,-0.94103 a 0.26460996,0.26460996 0 0 0 0.0041,-0.045 v -1.57613 a 0.26460996,0.26460996 0 0 0 -0.263549,-0.26407 z"
           style="color:#000000;font-style:normal;font-variant:normal;font-weight:normal;font-stretch:normal;font-size:medium;line-height:normal;font-family:sans-serif;font-variant-ligatures:normal;font-variant-position:normal;font-variant-caps:normal;font-variant-numeric:normal;font-variant-alternates:normal;font-variant-east-asian:normal;font-feature-settings:normal;font-variation-settings:normal;text-indent:0;text-align:start;text-decoration:none;text-decoration-line:none;text-decoration-style:solid;text-decoration-color:#000000;letter-spacing:normal;word-spacing:normal;text-transform:none;writing-mode:lr-tb;direction:ltr;text-orientation:mixed;dominant-baseline:auto;baseline-shift:baseline;text-anchor:start;white-space:normal;shape-padding:0;shape-margin:0;inline-size:0;clip-rule:nonzero;display:inline;overflow:visible;visibility:visible;isolation:auto;mix-blend-mode:normal;color-interpolation:sRGB;color-interpolation-filters:linearRGB;solid-color:#000000;solid-opacity:1;vector-effect:none;fill:#ffa185;fill-opacity:1;fill-rule:nonzero;stroke:none;stroke-width:0.529167;stroke-linecap:round;stroke-linejoin:round;stroke-miterlimit:4;stroke-dasharray:none;stroke-dashoffset:0;stroke-opacity:1;color-rendering:auto;image-rendering:auto;shape-rendering:auto;text-rendering:auto;enable-background:accumulate;stop-color:#000000"
           id="path1098" />
        <path
           id="path729"
           d="m 68.927734,291.04102 a 0.26460996,0.26460996 0 0 0 -0.263672,0.24414 l -0.271484,3.53515 a 0.26460996,0.26460996 0 0 0 0.07617,0.20703 l 0.816406,0.81446 a 0.26460996,0.26460996 0 0 0 0.375,0 l 0.814453,-0.81446 a 0.26460996,0.26460996 0 0 0 0.07813,-0.20703 L 70.2793,291.28516 a 0.26460996,0.26460996 0 0 0 -0.263672,-0.24414 z"
           style="color:#000000;font-style:normal;font-variant:normal;font-weight:normal;font-stretch:normal;font-size:medium;line-height:normal;font-family:sans-serif;font-variant-ligatures:normal;font-variant-position:normal;font-variant-caps:normal;font-variant-numeric:normal;font-variant-alternates:normal;font-variant-east-asian:normal;font-feature-settings:normal;font-variation-settings:normal;text-indent:0;text-align:start;text-decoration:none;text-decoration-line:none;text-decoration-style:solid;text-decoration-color:#000000;letter-spacing:normal;word-spacing:normal;text-transform:none;writing-mode:lr-tb;direction:ltr;text-orientation:mixed;dominant-baseline:auto;baseline-shift:baseline;text-anchor:start;white-space:normal;shape-padding:0;shape-margin:0;inline-size:0;clip-rule:nonzero;display:inline;overflow:visible;visibility:visible;isolation:auto;mix-blend-mode:normal;color-interpolation:sRGB;color-interpolation-filters:linearRGB;solid-color:#000000;solid-opacity:1;vector-effect:none;fill:#dc1c4b;fill-opacity:1;fill-rule:nonzero;stroke:none;stroke-width:0.529167;stroke-linecap:round;stroke-linejoin:round;stroke-miterlimit:4;stroke-dasharray:none;stroke-dashoffset:0;stroke-opacity:1;color-rendering:auto;image-rendering:auto;shape-rendering:auto;text-rendering:auto;enable-background:accumulate;stop-color:#000000" />
        <path
           id="path746"
           d="m 67.308594,288.05078 a 0.26460996,0.26460996 0 0 0 -0.197266,0.0762 l -0.816406,0.81641 a 0.26460996,0.26460996 0 0 0 0.01563,0.38867 l 1.902344,1.63086 a 0.26460996,0.26460996 0 0 0 0.408203,-0.082 l 0.544922,-1.08789 a 0.26460996,0.26460996 0 0 0 -0.06836,-0.32227 l -1.630859,-1.35937 a 0.26460996,0.26460996 0 0 0 -0.158203,-0.0606 z"
           style="color:#000000;font-style:normal;font-variant:normal;font-weight:normal;font-stretch:normal;font-size:medium;line-height:normal;font-family:sans-serif;font-variant-ligatures:normal;font-variant-position:normal;font-variant-caps:normal;font-variant-numeric:normal;font-variant-alternates:normal;font-variant-east-asian:normal;font-feature-settings:normal;font-variation-settings:normal;text-indent:0;text-align:start;text-decoration:none;text-decoration-line:none;text-decoration-style:solid;text-decoration-color:#000000;letter-spacing:normal;word-spacing:normal;text-transform:none;writing-mode:lr-tb;direction:ltr;text-orientation:mixed;dominant-baseline:auto;baseline-shift:baseline;text-anchor:start;white-space:normal;shape-padding:0;shape-margin:0;inline-size:0;clip-rule:nonzero;display:inline;overflow:visible;visibility:visible;isolation:auto;mix-blend-mode:normal;color-interpolation:sRGB;color-interpolation-filters:linearRGB;solid-color:#000000;solid-opacity:1;vector-effect:none;fill:#91a9d9;fill-opacity:1;fill-rule:nonzero;stroke:none;stroke-width:0.529167;stroke-linecap:round;stroke-linejoin:round;stroke-miterlimit:4;stroke-dasharray:none;stroke-dashoffset:0;stroke-opacity:1;color-rendering:auto;image-rendering:auto;shape-rendering:auto;text-rendering:auto;enable-background:accumulate;stop-color:#000000" />
        <path
           id="path763"
           d="m 71.638672,288.05078 a 0.26460996,0.26460996 0 0 0 -0.160156,0.0606 l -1.63086,1.35937 a 0.26460996,0.26460996 0 0 0 -0.06836,0.32227 l 0.542969,1.08789 a 0.26460996,0.26460996 0 0 0 0.410156,0.082 l 1.902344,-1.63086 a 0.26460996,0.26460996 0 0 0 0.01563,-0.38867 l -0.816407,-0.81641 a 0.26460996,0.26460996 0 0 0 -0.195312,-0.0762 z"
           style="color:#000000;font-style:normal;font-variant:normal;font-weight:normal;font-stretch:normal;font-size:medium;line-height:normal;font-family:sans-serif;font-variant-ligatures:normal;font-variant-position:normal;font-variant-caps:normal;font-variant-numeric:normal;font-variant-alternates:normal;font-variant-east-asian:normal;font-feature-settings:normal;font-variation-settings:normal;text-indent:0;text-align:start;text-decoration:none;text-decoration-line:none;text-decoration-style:solid;text-decoration-color:#000000;letter-spacing:normal;word-spacing:normal;text-transform:none;writing-mode:lr-tb;direction:ltr;text-orientation:mixed;dominant-baseline:auto;baseline-shift:baseline;text-anchor:start;white-space:normal;shape-padding:0;shape-margin:0;inline-size:0;clip-rule:nonzero;display:inline;overflow:visible;visibility:visible;isolation:auto;mix-blend-mode:normal;color-interpolation:sRGB;color-interpolation-filters:linearRGB;solid-color:#000000;solid-opacity:1;vector-effect:none;fill:#91a9d9;fill-opacity:1;fill-rule:nonzero;stroke:none;stroke-width:0.529167;stroke-linecap:round;stroke-linejoin:round;stroke-miterlimit:4;stroke-dasharray:none;stroke-dashoffset:0;stroke-opacity:1;color-rendering:auto;image-rendering:auto;shape-rendering:auto;text-rendering:auto;enable-background:accumulate;stop-color:#000000" />
        <path
           sodipodi:nodetypes="ccccccccc"
           id="path769"
           d="m 72.183594,282.64934 c -5.16e-4,-0.14541 -0.118264,0.0484 -0.263672,0.0479 h -4.894531 c -0.145408,5.1e-4 -0.263156,0.11826 -0.263672,0.26367 v 1.22355 l 2.652343,0.85457 c 0.03794,0.008 0.07729,0.008 0.115235,0 l 2.654338,-0.85457 z"
           style="color:#000000;font-style:normal;font-variant:normal;font-weight:normal;font-stretch:normal;font-size:medium;line-height:normal;font-family:sans-serif;font-variant-ligatures:normal;font-variant-position:normal;font-variant-caps:normal;font-variant-numeric:normal;font-variant-alternates:normal;font-variant-east-asian:normal;font-feature-settings:normal;font-variation-settings:normal;text-indent:0;text-align:start;text-decoration:none;text-decoration-line:none;text-decoration-style:solid;text-decoration-color:#000000;letter-spacing:normal;word-spacing:normal;text-transform:none;writing-mode:lr-tb;direction:ltr;text-orientation:mixed;dominant-baseline:auto;baseline-shift:baseline;text-anchor:start;white-space:normal;shape-padding:0;shape-margin:0;inline-size:0;clip-rule:nonzero;display:inline;overflow:visible;visibility:visible;isolation:auto;mix-blend-mode:normal;color-interpolation:sRGB;color-interpolation-filters:linearRGB;solid-color:#000000;solid-opacity:1;vector-effect:none;fill:#5f8ea2;fill-opacity:1;fill-rule:nonzero;stroke:none;stroke-width:0.529167;stroke-linecap:round;stroke-linejoin:round;stroke-miterlimit:4;stroke-dasharray:none;stroke-dashoffset:0;stroke-opacity:1;color-rendering:auto;image-rendering:auto;shape-rendering:auto;text-rendering:auto;enable-background:accumulate;stop-color:#000000" />
        <path
           sodipodi:nodetypes="ccccccccc"
           transform="matrix(0.26458334,0,0,0.26458334,0,280.06666)"
           d="m 253.32422,9.9433594 c -0.54922,0.00219 -0.9939,0.4468756 -0.9961,0.9960936 v 3.989003 l 9.91993,2.130138 c 0.21074,0.07246 0.43965,0.07246 0.65039,0 l 9.92187,-1.405395 v -4.713746 c -0.002,-0.549214 -0.44688,-0.9938955 -0.99609,-0.9960936 z"
           style="color:#000000;font-style:normal;font-variant:normal;font-weight:normal;font-stretch:normal;font-size:medium;line-height:normal;font-family:sans-serif;font-variant-ligatures:normal;font-variant-position:normal;font-variant-caps:normal;font-variant-numeric:normal;font-variant-alternates:normal;font-variant-east-asian:normal;font-feature-settings:normal;font-variation-settings:normal;text-indent:0;text-align:start;text-decoration:none;text-decoration-line:none;text-decoration-style:solid;text-decoration-color:#000000;letter-spacing:normal;word-spacing:normal;text-transform:none;writing-mode:lr-tb;direction:ltr;text-orientation:mixed;dominant-baseline:auto;baseline-shift:baseline;text-anchor:start;white-space:normal;shape-padding:0;shape-margin:0;inline-size:0;clip-rule:nonzero;display:inline;overflow:visible;visibility:visible;isolation:auto;mix-blend-mode:normal;color-interpolation:sRGB;color-interpolation-filters:linearRGB;solid-color:#000000;solid-opacity:1;vector-effect:none;fill:#3a4d5c;fill-opacity:1;fill-rule:nonzero;stroke:none;stroke-width:2;stroke-linecap:round;stroke-linejoin:round;stroke-miterlimit:4;stroke-dasharray:none;stroke-dashoffset:0;stroke-opacity:1;color-rendering:auto;image-rendering:auto;shape-rendering:auto;text-rendering:auto;enable-background:accumulate;stop-color:#000000"
           id="path1047" />
        <path
           id="path807"
           d="m 68.927734,289.41016 a 0.26460996,0.26460996 0 0 0 -0.236328,0.14648 l -0.542968,1.08594 a 0.26460996,0.26460996 0 0 0 0.04883,0.30664 l 0.544922,0.54297 a 0.26460996,0.26460996 0 0 0 0.185546,0.0781 h 0.544922 0.542969 a 0.26460996,0.26460996 0 0 0 0.1875,-0.0781 l 0.542969,-0.54297 a 0.26460996,0.26460996 0 0 0 0.05078,-0.30664 l -0.544922,-1.08594 a 0.26460996,0.26460996 0 0 0 -0.236328,-0.14648 z"
           style="color:#000000;font-style:normal;font-variant:normal;font-weight:normal;font-stretch:normal;font-size:medium;line-height:normal;font-family:sans-serif;font-variant-ligatures:normal;font-variant-position:normal;font-variant-caps:normal;font-variant-numeric:normal;font-variant-alternates:normal;font-variant-east-asian:normal;font-feature-settings:normal;font-variation-settings:normal;text-indent:0;text-align:start;text-decoration:none;text-decoration-line:none;text-decoration-style:solid;text-decoration-color:#000000;letter-spacing:normal;word-spacing:normal;text-transform:none;writing-mode:lr-tb;direction:ltr;text-orientation:mixed;dominant-baseline:auto;baseline-shift:baseline;text-anchor:start;white-space:normal;shape-padding:0;shape-margin:0;inline-size:0;clip-rule:nonzero;display:inline;overflow:visible;visibility:visible;isolation:auto;mix-blend-mode:normal;color-interpolation:sRGB;color-interpolation-filters:linearRGB;solid-color:#000000;solid-opacity:1;vector-effect:none;fill:#b01d47;fill-opacity:1;fill-rule:nonzero;stroke:none;stroke-width:0.529167;stroke-linecap:round;stroke-linejoin:round;stroke-miterlimit:4;stroke-dasharray:none;stroke-dashoffset:0;stroke-opacity:1;color-rendering:auto;image-rendering:auto;shape-rendering:auto;text-rendering:auto;enable-background:accumulate;stop-color:#000000" />
        <path
           id="path789"
           d="m 69.453125,280.33203 a 0.26460996,0.26460996 0 0 0 -0.08789,0.0215 l -4.078125,1.80859 a 0.26460996,0.26460996 0 0 0 0.02148,0.49219 l 4.078125,1.39648 a 0.26460996,0.26460996 0 0 0 0.171875,0 l 4.078125,-1.39648 a 0.26460996,0.26460996 0 0 0 0.02148,-0.49219 l -4.078125,-1.80859 a 0.26460996,0.26460996 0 0 0 -0.126953,-0.0215 z"
           style="color:#000000;font-style:normal;font-variant:normal;font-weight:normal;font-stretch:normal;font-size:medium;line-height:normal;font-family:sans-serif;font-variant-ligatures:normal;font-variant-position:normal;font-variant-caps:normal;font-variant-numeric:normal;font-variant-alternates:normal;font-variant-east-asian:normal;font-feature-settings:normal;font-variation-settings:normal;text-indent:0;text-align:start;text-decoration:none;text-decoration-line:none;text-decoration-style:solid;text-decoration-color:#000000;letter-spacing:normal;word-spacing:normal;text-transform:none;writing-mode:lr-tb;direction:ltr;text-orientation:mixed;dominant-baseline:auto;baseline-shift:baseline;text-anchor:start;white-space:normal;shape-padding:0;shape-margin:0;inline-size:0;clip-rule:nonzero;display:inline;overflow:visible;visibility:visible;isolation:auto;mix-blend-mode:normal;color-interpolation:sRGB;color-interpolation-filters:linearRGB;solid-color:#000000;solid-opacity:1;vector-effect:none;fill:#5f8ea2;fill-opacity:1;fill-rule:nonzero;stroke:none;stroke-width:0.529167;stroke-linecap:round;stroke-linejoin:round;stroke-miterlimit:4;stroke-dasharray:none;stroke-dashoffset:0;stroke-opacity:1;color-rendering:auto;image-rendering:auto;shape-rendering:auto;text-rendering:auto;enable-background:accumulate;stop-color:#000000" />
        <path
           id="path800"
           d="m 65.220703,284.67969 a 0.26460996,0.26460996 0 0 0 -0.263672,0.24414 l -0.130859,1.68164 c -0.02554,0.32753 0.239844,0.61523 0.568359,0.61523 H 65.9375 c 0.328516,0 0.593895,-0.28771 0.568359,-0.61523 L 66.375,284.92383 a 0.26460996,0.26460996 0 0 0 -0.263672,-0.24414 z"
           style="color:#000000;font-style:normal;font-variant:normal;font-weight:normal;font-stretch:normal;font-size:medium;line-height:normal;font-family:sans-serif;font-variant-ligatures:normal;font-variant-position:normal;font-variant-caps:normal;font-variant-numeric:normal;font-variant-alternates:normal;font-variant-east-asian:normal;font-feature-settings:normal;font-variation-settings:normal;text-indent:0;text-align:start;text-decoration:none;text-decoration-line:none;text-decoration-style:solid;text-decoration-color:#000000;letter-spacing:normal;word-spacing:normal;text-transform:none;writing-mode:lr-tb;direction:ltr;text-orientation:mixed;dominant-baseline:auto;baseline-shift:baseline;text-anchor:start;white-space:normal;shape-padding:0;shape-margin:0;inline-size:0;clip-rule:nonzero;display:inline;overflow:visible;visibility:visible;isolation:auto;mix-blend-mode:normal;color-interpolation:sRGB;color-interpolation-filters:linearRGB;solid-color:#000000;solid-opacity:1;vector-effect:none;fill:#fed883;fill-opacity:1;fill-rule:nonzero;stroke:none;stroke-width:0.529167;stroke-linecap:round;stroke-linejoin:round;stroke-miterlimit:4;stroke-dasharray:none;stroke-dashoffset:0;stroke-opacity:1;color-rendering:auto;image-rendering:auto;shape-rendering:auto;text-rendering:auto;enable-background:accumulate;stop-color:#000000" />
        <path
           transform="matrix(0.26458334,0,0,0.26458334,0,280.06666)"
           d="m 246.50391,17.435547 a 1.0001006,1.0001006 0 0 0 -0.9961,0.921875 l -0.22851,2.919922 c 0.78352,0.688635 1.79455,1.123047 2.90625,1.123047 1.11169,0 2.12468,-0.434412 2.9082,-1.123047 l -0.22852,-2.919922 a 1.0001006,1.0001006 0 0 0 -0.99609,-0.921875 z"
           style="color:#000000;font-style:normal;font-variant:normal;font-weight:normal;font-stretch:normal;font-size:medium;line-height:normal;font-family:sans-serif;font-variant-ligatures:normal;font-variant-position:normal;font-variant-caps:normal;font-variant-numeric:normal;font-variant-alternates:normal;font-variant-east-asian:normal;font-feature-settings:normal;font-variation-settings:normal;text-indent:0;text-align:start;text-decoration:none;text-decoration-line:none;text-decoration-style:solid;text-decoration-color:#000000;letter-spacing:normal;word-spacing:normal;text-transform:none;writing-mode:lr-tb;direction:ltr;text-orientation:mixed;dominant-baseline:auto;baseline-shift:baseline;text-anchor:start;white-space:normal;shape-padding:0;shape-margin:0;inline-size:0;clip-rule:nonzero;display:inline;overflow:visible;visibility:visible;isolation:auto;mix-blend-mode:normal;color-interpolation:sRGB;color-interpolation-filters:linearRGB;solid-color:#000000;solid-opacity:1;vector-effect:none;fill:#fca311;fill-opacity:1;fill-rule:nonzero;stroke:none;stroke-width:3.22528;stroke-linecap:round;stroke-linejoin:round;stroke-miterlimit:4;stroke-dasharray:none;stroke-dashoffset:0;stroke-opacity:1;color-rendering:auto;image-rendering:auto;shape-rendering:auto;text-rendering:auto;enable-background:accumulate;stop-color:#000000"
           id="path1092" />
        <path
           id="path1003"
           d="m 65.666016,284.08984 c -0.398833,0 -0.728513,0.32969 -0.728516,0.72852 3e-6,0.39883 0.329683,0.72852 0.728516,0.72852 0.398832,0 0.728512,-0.32969 0.728515,-0.72852 -3e-6,-0.39883 -0.329683,-0.72852 -0.728515,-0.72852 z"
           style="color:#000000;font-style:normal;font-variant:normal;font-weight:normal;font-stretch:normal;font-size:medium;line-height:normal;font-family:sans-serif;font-variant-ligatures:normal;font-variant-position:normal;font-variant-caps:normal;font-variant-numeric:normal;font-variant-alternates:normal;font-variant-east-asian:normal;font-feature-settings:normal;font-variation-settings:normal;text-indent:0;text-align:start;text-decoration:none;text-decoration-line:none;text-decoration-style:solid;text-decoration-color:#000000;letter-spacing:normal;word-spacing:normal;text-transform:none;writing-mode:lr-tb;direction:ltr;text-orientation:mixed;dominant-baseline:auto;baseline-shift:baseline;text-anchor:start;white-space:normal;shape-padding:0;shape-margin:0;inline-size:0;clip-rule:nonzero;display:inline;overflow:visible;visibility:visible;isolation:auto;mix-blend-mode:normal;color-interpolation:sRGB;color-interpolation-filters:linearRGB;solid-color:#000000;solid-opacity:1;vector-effect:none;fill:#3a4d5c;fill-opacity:1;fill-rule:nonzero;stroke:none;stroke-width:0.529167;stroke-linecap:round;stroke-linejoin:round;stroke-miterlimit:4;stroke-dasharray:none;stroke-dashoffset:0;stroke-opacity:1;color-rendering:auto;image-rendering:auto;shape-rendering:auto;text-rendering:auto;enable-background:accumulate;stop-color:#000000" />
      </g>
      <path
         id="path2306"
         style="color:#000000;font-style:normal;font-variant:normal;font-weight:normal;font-stretch:normal;font-size:medium;line-height:normal;font-family:sans-serif;font-variant-ligatures:normal;font-variant-position:normal;font-variant-caps:normal;font-variant-numeric:normal;font-variant-alternates:normal;font-variant-east-asian:normal;font-feature-settings:normal;font-variation-settings:normal;text-indent:0;text-align:start;text-decoration:none;text-decoration-line:none;text-decoration-style:solid;text-decoration-color:#000000;letter-spacing:normal;word-spacing:normal;text-transform:none;writing-mode:lr-tb;direction:ltr;text-orientation:mixed;dominant-baseline:auto;baseline-shift:baseline;text-anchor:start;white-space:normal;shape-padding:0;shape-margin:0;inline-size:0;clip-rule:nonzero;display:inline;overflow:visible;visibility:visible;opacity:1;isolation:auto;mix-blend-mode:normal;color-interpolation:sRGB;color-interpolation-filters:linearRGB;solid-color:#000000;solid-opacity:1;vector-effect:none;fill:#000000;fill-opacity:1;fill-rule:nonzero;stroke:none;stroke-width:2;stroke-linecap:round;stroke-linejoin:round;stroke-miterlimit:4;stroke-dasharray:none;stroke-dashoffset:0;stroke-opacity:1;color-rendering:auto;image-rendering:auto;shape-rendering:auto;text-rendering:auto;enable-background:accumulate;stop-color:#000000;stop-opacity:1"
         d="m 272.82036,11.660156 5.49219,-1.8808591 c 0.85842,-0.2960334 0.90988,-1.4906158 0.0801,-1.859375 L 262.98047,1.0839844 c -0.25768,-0.13810064 -0.58789,-0.0964455 -0.81249,3.6e-6 l -15.41406,6.8359375 c -0.82954,0.3695565 -0.77686,1.5642784 0.082,1.859375 l 4.63867,1.5878915 -3.69336,1.638671 c -0.35845,0.160305 -0.58993,0.515541 -0.5918,0.908203 v 1.488282 c -1.02098,0.404751 -1.75585,1.401033 -1.75586,2.55664 1e-5,0.193385 0.0216,0.381751 0.0605,0.564454 l -0.48242,6.189453 c -0.0965,1.23787 0.9068,2.326171 2.14844,2.326171 h 2.05273 c 1.24164,0 2.24495,-1.088301 2.14844,-2.326171 l -0.48242,-6.189453 c 0.0389,-0.182704 0.0605,-0.371069 0.0605,-0.564454 -10e-6,-1.152796 -0.73095,-2.148023 -1.74804,-2.554687 V 14.5625 l 3.13671,-1.388672 0.008,8.919922 c 0,0 0.31136,1.813825 1.76367,3.556641 0.56168,0.674018 1.3099,1.339463 2.26172,1.904297 l -0.63086,3.466796 -0.73828,-0.615234 c -0.16856,-0.14027 -0.37856,-0.221249 -0.59766,-0.230469 -0.27809,-0.01166 -0.54845,0.09309 -0.74609,0.289063 l -3.08399,3.085937 c -0.16564,0.165541 -0.26794,0.383961 -0.28906,0.617188 l -3.58008,1.611328 c -0.14751,0.06652 -0.27717,0.167552 -0.37695,0.294922 l -2.11719,2.701172 c -0.13001,0.164787 -0.20566,0.366597 -0.21484,0.576171 l -0.90821,22.611329 c -0.0231,0.566778 0.42884,1.039466 0.9961,1.041015 h 36.99219 c 0.57016,0.0026 1.02714,-0.471327 1.0039,-1.041015 l -0.9082,-22.611329 c -0.009,-0.209763 -0.0848,-0.41146 -0.21484,-0.576171 l -2.11915,-2.701172 c -0.0998,-0.12737 -0.22748,-0.228402 -0.375,-0.294922 l -3.58007,-1.611328 c -0.0211,-0.233228 -0.12342,-0.451648 -0.28907,-0.617188 l -3.08593,-3.085937 c -0.19576,-0.193953 -0.46287,-0.298538 -0.73828,-0.289063 -0.22157,0.007 -0.43455,0.08734 -0.60547,0.228516 l -0.74414,0.619141 -0.63086,-3.464844 c 0.95531,-0.56575 1.70641,-1.232465 2.26953,-1.908203 1.45232,-1.742816 1.75586,-3.556641 1.75586,-3.556641 z m -10.24605,-8.5683591 12.67383,5.6171875 -12.67383,4.3417966 -5.61914,-1.923828 6.02539,-2.6679686 c 0.50604,-0.2242606 0.73365,-0.8169289 0.50781,-1.3222656 -0.15825,-0.3601183 -0.51291,-0.5940147 -0.90625,-0.5976563 -0.14271,-5.842e-4 -0.28389,0.029384 -0.41406,0.087891 l -7.99609,3.5449215 -4.27344,-1.4628902 z m -8.2461,9.2539061 7.91993,2.712891 c 0.21074,0.07246 0.43965,0.07246 0.65039,0 l 7.92187,-2.712891 v 2.617188 l -8.24609,1.830078 -8.2461,-1.830078 z m 16.49219,4.664063 v 4.78125 c -0.005,0.02646 -0.20278,1.251523 -1.30664,2.576172 -1.11649,1.339804 -3.07936,2.722656 -6.93945,2.722656 -3.86009,0 -5.82297,-1.382852 -6.93945,-2.722656 -1.10388,-1.324649 -1.30194,-2.548015 -1.30665,-2.576172 v -4.779297 l 8.02344,1.78125 c 0.1434,0.03024 0.29214,0.03024 0.43555,0 z m -22.63476,0.197265 c 0.42651,0 0.7539,0.325547 0.7539,0.751953 0,0.42652 -0.32739,0.753907 -0.7539,0.753907 -0.42652,0 -0.75195,-0.3275 -0.75196,-0.753907 1e-5,-0.426519 0.32544,-0.751953 0.75196,-0.751953 z m -0.84571,3.355469 c 0.26893,0.08903 0.54903,0.150383 0.84571,0.150391 0.29668,0 0.57873,-0.06136 0.84765,-0.150391 l 0.33399,4.306641 c 0.008,0.105448 -0.0485,0.169921 -0.1543,0.169921 h -2.05273 c -0.10583,0 -0.1625,-0.06447 -0.1543,-0.169921 z m 13.54297,14.751953 -3.38672,-2.822265 0.74024,-4.078126 c 1.21059,0.416102 2.64254,0.677735 4.33789,0.677735 1.69221,0 3.12284,-0.259086 4.33203,-0.673828 l 0.74609,4.072265 -3.38867,2.824219 z m -6.46679,-2.791015 4.85156,4.044921 -1.13086,2.259766 -5.39453,-4.628906 z m 16.31445,0 1.67578,1.675781 -5.40234,4.628906 -1.13086,-2.251953 z m -19.20313,3.271484 2.85352,2.447266 v 22.761718 h -3.13867 V 47.611328 c -0.002,-0.549581 -0.4465,-0.994204 -0.9961,-0.996094 -0.55247,-0.0022 -1.002,0.443603 -1.0039,0.996094 v 9.279297 h -3.95508 l 0.68555,-17.132813 0.1582,-0.201171 2.59375,2.644531 0.48828,2.355469 c 0.11252,0.543345 0.6449,0.891497 1.1875,0.77539 0.53983,-0.11263 0.88689,-0.641584 0.77539,-1.18164 l -0.55273,-2.642579 c -0.0395,-0.186708 -0.13164,-0.358228 -0.26563,-0.49414 l -2.98633,-3.046875 0.36524,-0.46875 z m 22.0918,0.002 3.78516,1.703125 0.36914,0.470703 -2.98242,3.042969 c -0.13399,0.136063 -0.2261,0.307205 -0.26563,0.49414 l -0.55469,2.642579 c -0.11149,0.540056 0.23557,1.06901 0.77539,1.18164 0.54008,0.111496 1.06901,-0.235749 1.18164,-0.77539 l 0.49415,-2.355469 2.5957,-2.644531 0.1582,0.201171 0.68555,17.132813 h -3.95508 v -9.279297 c -0.002,-0.552491 -0.45143,-0.998286 -1.00391,-0.996094 -0.54959,0.0019 -0.99615,0.446513 -0.99804,0.996094 v 13.392578 h -3.13672 V 38.242188 Z m -9.61133,1.517578 1.45508,2.912109 -1.25,1.251954 h -3.27745 l -1.25586,-1.25586 1.45714,-2.908203 z m -4.52539,5.541016 -0.99023,12.90625 c -0.0227,0.290267 0.0818,0.576727 0.28711,0.783203 l 3.08593,3.078125 c 0.39091,0.392542 1.02707,0.392542 1.41797,0 l 3.07813,-3.078125 c 0.20799,-0.205228 0.31552,-0.491764 0.29492,-0.783203 l -0.99805,-12.902344 3.10938,-2.902344 v 21.046875 h -6.19336 -6.19336 V 39.957078 Z m 4.21875,0.623047 0.92578,11.972656 -2.05273,2.052734 -2.05274,-2.052734 0.92383,-11.972656 z m -18.49414,15.414062 h 4.03516 V 61.002 h -4.11914 z m 30.69922,0 h 4.03516 l 0.084,2.111328 h -4.11914 z"
         transform="matrix(0.26458334,0,0,0.26458334,0,280.06666)"
         sodipodi:nodetypes="cccccccccccsccssccsccccscccsccccccccccccccccccccccscccccccccccccccccccccccssscccccssssscsccsscccccsccccccccccccccccccccccccccccccccccccccccccccccccccccccccccccccccccccccccccccccccccccccccccc" />
    </g>
  </g>
</svg>
