<?xml version="1.0" standalone="no"?>
<!DOCTYPE svg PUBLIC "-//W3C//DTD SVG 20010904//EN"
 "http://www.w3.org/TR/2001/REC-SVG-20010904/DTD/svg10.dtd">
<svg version="1.0" xmlns="http://www.w3.org/2000/svg"
 width="256.000000pt" height="256.000000pt" viewBox="0 0 256.000000 256.000000"
 preserveAspectRatio="xMidYMid meet">

<g transform="translate(0.000000,256.000000) scale(0.100000,-0.100000)"
fill="#000000" stroke="none">
<path d="M1125 2469 c-110 -14 -251 -56 -350 -103 -607 -287 -863 -1005 -571
-1602 147 -299 401 -519 714 -618 771 -243 1552 332 1552 1142 0 714 -635
1271 -1345 1181z m255 -82 c28 -14 38 -51 20 -73 -16 -18 -230 -20 -248 -2
-28 28 -10 70 33 81 42 10 171 6 195 -6z m-322 -67 c2 -12 -1 -27 -6 -32 -8
-8 -198 -77 -214 -78 -13 0 -38 32 -38 48 0 32 18 44 116 78 86 29 101 32 119
20 11 -7 22 -23 23 -36z m638 -5 c44 -20 54 -28 54 -49 0 -30 -27 -59 -49 -52
-9 2 -59 20 -111 38 -85 30 -95 36 -98 60 -2 18 4 31 18 41 19 13 28 13 77 0
30 -8 79 -25 109 -38z m-968 -107 c22 -22 13 -56 -20 -79 -18 -12 -56 -42 -85
-66 -69 -58 -113 -55 -113 8 0 21 16 39 77 88 78 61 116 74 141 49z m1225 -38
c37 -28 74 -62 83 -75 15 -23 15 -27 0 -50 -24 -36 -47 -31 -108 21 -29 25
-65 53 -81 62 -33 20 -42 44 -27 72 18 35 60 25 133 -30z m188 -191 c27 -14
119 -156 119 -183 0 -32 -15 -48 -44 -48 -15 0 -28 1 -29 3 -1 2 -28 43 -60
90 -31 47 -57 92 -57 99 0 16 29 50 42 50 5 0 18 -5 29 -11z m-1673 -11 c21
-21 13 -42 -48 -136 -63 -95 -82 -108 -114 -76 -28 28 -23 44 51 157 37 55 49
67 72 67 15 0 32 -5 39 -12z m1422 -203 c16 -8 39 -29 52 -47 l23 -33 0 -400
c0 -445 2 -433 -68 -475 -31 -19 -55 -20 -622 -20 -560 0 -592 1 -621 19 -64
39 -65 47 -62 490 l3 400 30 31 c17 18 39 36 50 40 11 5 282 9 603 9 497 1
587 -1 612 -14z m-1599 -95 c24 -14 24 -33 -3 -145 -24 -102 -31 -115 -62
-115 -51 0 -58 43 -26 160 12 44 29 82 41 93 25 20 25 20 50 7z m2033 -12 c9
-12 25 -64 37 -115 21 -90 21 -94 4 -113 -21 -23 -48 -26 -64 -7 -9 12 -61
197 -61 219 0 14 32 38 50 38 10 0 26 -10 34 -22z m-2080 -350 c8 -14 16 -65
20 -124 6 -111 0 -129 -46 -122 -32 4 -46 39 -54 141 -6 76 -4 90 11 107 24
26 51 25 69 -2z m2136 7 c16 -19 8 -201 -9 -234 -23 -42 -99 -13 -87 33 2 12
8 59 12 106 3 47 11 91 16 98 14 17 53 15 68 -3z m-2065 -380 c79 -158 85
-195 34 -208 -31 -8 -60 26 -97 115 -35 83 -39 107 -20 126 25 25 62 10 83
-33z m2014 23 c9 -24 -16 -103 -58 -186 -17 -34 -27 -42 -49 -42 -59 0 -65 34
-23 118 15 31 32 68 36 82 11 38 25 50 57 50 21 0 31 -6 37 -22z m-1801 -367
c71 -78 84 -105 60 -129 -26 -26 -56 -12 -127 63 -71 75 -85 107 -59 133 27
27 54 12 126 -67z m1634 54 c13 -29 4 -46 -78 -134 -34 -37 -64 -61 -77 -61
-24 0 -57 27 -57 46 0 8 33 50 73 93 56 63 78 80 100 81 20 0 31 -7 39 -25z
m-1267 -327 c10 -28 -13 -58 -42 -58 -26 0 -126 46 -175 82 -38 27 -37 77 2
90 20 7 208 -93 215 -114z m993 106 c48 -33 22 -70 -88 -128 -73 -39 -110 -45
-130 -22 -26 33 -8 59 70 99 41 22 84 46 95 53 24 17 26 17 53 -2z m-765 -148
c99 -15 123 -30 113 -70 -9 -36 -40 -41 -147 -23 -97 16 -119 28 -119 61 0 49
18 52 153 32z m457 -6 c26 -49 -4 -69 -134 -91 -95 -15 -129 -4 -124 38 4 33
32 49 113 61 105 16 133 14 145 -8z"/>
<path d="M750 1690 c0 -10 515 -520 525 -520 10 0 525 510 525 520 0 3 -236 5
-525 5 -289 0 -525 -2 -525 -5z"/>
<path d="M1677 1447 l-196 -204 185 -184 c175 -174 186 -183 200 -165 12 17
14 82 14 388 0 202 -2 368 -4 368 -2 0 -91 -91 -199 -203z"/>
<path d="M670 1284 c0 -330 2 -364 18 -383 17 -21 18 -20 199 161 l183 183
-200 200 -200 200 0 -361z"/>
<path d="M980 1039 c-80 -82 -149 -154 -154 -159 -7 -7 155 -10 450 -10 l459
1 -159 155 -160 155 -61 -61 c-33 -33 -68 -60 -77 -60 -9 0 -44 29 -79 65 -34
36 -65 65 -68 64 -3 0 -71 -68 -151 -150z"/>
</g>
</svg>
